G04 ================== begin FILE IDENTIFICATION RECORD ==================*
G04 Layout Name:  E:/workDir/SYB480/board/syn480.brd*
G04 Film Name:    assemblyTop*
G04 File Format:  Gerber RS274X*
G04 File Origin:  Cadence Allegro 16.5-P002*
G04 Origin Date:  Sun Oct 15 02:59:52 2017*
G04 *
G04 Layer:  BOARD GEOMETRY/OUTLINE*
G04 Layer:  PACKAGE GEOMETRY/ASSEMBLY_TOP*
G04 Layer:  REF DES/ASSEMBLY_TOP*
G04 *
G04 Offset:    (0.00 0.00)*
G04 Mirror:    No*
G04 Mode:      Positive*
G04 Rotation:  0*
G04 FullContactRelief:  No*
G04 UndefLineWidth:     6.00*
G04 ================== end FILE IDENTIFICATION RECORD ====================*
%FSLAX35Y35*MOIN*%
%IR0*IPPOS*OFA0.00000B0.00000*MIA0B0*SFA1.00000B1.00000*%
%ADD10C,.006*%
%ADD11C,.00394*%
%ADD12C,.00787*%
G75*
%LPD*%
G75*
G54D10*
G01X-29528Y-21654D02*
Y21654D01*
X29528D01*
Y-21654D01*
X-29528D01*
G01X-24900Y21484D02*
X-26692D01*
X-27067Y21377D01*
X-27317Y21164D01*
X-27400Y20898D01*
X-27317Y20632D01*
X-27067Y20419D01*
X-26692Y20312D01*
X-24900D01*
G01X-25317Y19208D02*
X-25067Y19048D01*
X-24942Y18862D01*
X-24900Y18649D01*
X-24983Y18382D01*
X-25192Y18196D01*
X-25442Y18143D01*
X-25692Y18169D01*
X-25900Y18276D01*
X-26317Y18809D01*
X-26608Y19048D01*
X-27025Y19208D01*
X-27400Y19261D01*
Y18143D01*
G01X-6112Y-14008D02*
X-6272Y-13883D01*
X-6458Y-13800D01*
X-6671D01*
X-6911Y-13925D01*
X-7097Y-14133D01*
X-7231Y-14383D01*
X-7337Y-14800D01*
X-7364Y-15175D01*
X-7311Y-15550D01*
X-7231Y-15800D01*
X-7071Y-16050D01*
X-6884Y-16217D01*
X-6698Y-16300D01*
X-6512D01*
X-6325Y-16217D01*
X-6165Y-16092D01*
X-6032Y-15925D01*
G01X-4182Y-16300D02*
Y-13800D01*
X-5168Y-15592D01*
X-3836D01*
G01X-5331Y-4684D02*
X-3539D01*
X-3164Y-4577D01*
X-2914Y-4364D01*
X-2831Y-4098D01*
X-2914Y-3832D01*
X-3164Y-3619D01*
X-3539Y-3512D01*
X-5331D01*
G01X-2831Y-1902D02*
X-5331D01*
X-4831Y-2222D01*
G01X-2831D02*
Y-1582D01*
G01X-4712Y10192D02*
X-4872Y10317D01*
X-5058Y10400D01*
X-5271D01*
X-5511Y10275D01*
X-5697Y10067D01*
X-5831Y9817D01*
X-5937Y9400D01*
X-5964Y9025D01*
X-5911Y8650D01*
X-5831Y8400D01*
X-5671Y8150D01*
X-5484Y7983D01*
X-5298Y7900D01*
X-5112D01*
X-4925Y7983D01*
X-4765Y8108D01*
X-4632Y8275D01*
G01X-3102Y7900D02*
Y10400D01*
X-3422Y9900D01*
G01Y7900D02*
X-2782D01*
G01X-12031Y10500D02*
Y8000D01*
X-10965D01*
G01X-9302D02*
Y10500D01*
X-9622Y10000D01*
G01Y8000D02*
X-8982D01*
G01X-17212Y10192D02*
X-17372Y10317D01*
X-17558Y10400D01*
X-17771D01*
X-18011Y10275D01*
X-18197Y10067D01*
X-18331Y9817D01*
X-18437Y9400D01*
X-18464Y9025D01*
X-18411Y8650D01*
X-18331Y8400D01*
X-18171Y8150D01*
X-17984Y7983D01*
X-17798Y7900D01*
X-17612D01*
X-17425Y7983D01*
X-17265Y8108D01*
X-17132Y8275D01*
G01X-16108Y9983D02*
X-15948Y10233D01*
X-15762Y10358D01*
X-15549Y10400D01*
X-15282Y10317D01*
X-15096Y10108D01*
X-15043Y9858D01*
X-15069Y9608D01*
X-15176Y9400D01*
X-15709Y8983D01*
X-15948Y8692D01*
X-16108Y8275D01*
X-16161Y7900D01*
X-15043D01*
G01X-31Y10400D02*
Y7900D01*
X1035D01*
G01X2192Y9983D02*
X2352Y10233D01*
X2538Y10358D01*
X2751Y10400D01*
X3018Y10317D01*
X3204Y10108D01*
X3257Y9858D01*
X3231Y9608D01*
X3124Y9400D01*
X2591Y8983D01*
X2352Y8692D01*
X2192Y8275D01*
X2139Y7900D01*
X3257D01*
G01X5388Y-13108D02*
X5228Y-12983D01*
X5042Y-12900D01*
X4829D01*
X4589Y-13025D01*
X4403Y-13233D01*
X4269Y-13483D01*
X4163Y-13900D01*
X4136Y-14275D01*
X4189Y-14650D01*
X4269Y-14900D01*
X4429Y-15150D01*
X4616Y-15317D01*
X4802Y-15400D01*
X4988D01*
X5175Y-15317D01*
X5335Y-15192D01*
X5468Y-15025D01*
G01X6412Y-14900D02*
X6572Y-15192D01*
X6785Y-15358D01*
X7025Y-15400D01*
X7238Y-15358D01*
X7451Y-15150D01*
X7584Y-14900D01*
X7611Y-14650D01*
X7557Y-14358D01*
X7371Y-14150D01*
X7184Y-14067D01*
X6945D01*
G01X7184D02*
X7344Y-13942D01*
X7477Y-13733D01*
X7531Y-13483D01*
X7477Y-13233D01*
X7344Y-13025D01*
X7105Y-12900D01*
X6865Y-12942D01*
X6625Y-13108D01*
G01X21991Y-1866D02*
X20866D01*
X19491Y-2399D01*
G01Y-1333D02*
X20866Y-1866D01*
G01X21991Y330D02*
X19491D01*
X19991Y10D01*
G01X21991D02*
Y650D01*
G01X7088Y9892D02*
X6928Y10017D01*
X6742Y10100D01*
X6529D01*
X6289Y9975D01*
X6103Y9767D01*
X5969Y9517D01*
X5863Y9100D01*
X5836Y8725D01*
X5889Y8350D01*
X5969Y8100D01*
X6129Y7850D01*
X6316Y7683D01*
X6502Y7600D01*
X6688D01*
X6875Y7683D01*
X7035Y7808D01*
X7168Y7975D01*
G01X8192Y8642D02*
X8378Y8933D01*
X8538Y9100D01*
X8751Y9183D01*
X8938Y9100D01*
X9071Y8933D01*
X9177Y8683D01*
X9204Y8392D01*
X9177Y8142D01*
X9071Y7892D01*
X8911Y7683D01*
X8725Y7600D01*
X8512Y7683D01*
X8325Y7933D01*
X8219Y8308D01*
X8192Y8725D01*
X8245Y9267D01*
X8325Y9558D01*
X8458Y9850D01*
X8645Y10058D01*
X8831Y10100D01*
X9018Y10017D01*
X9151Y9808D01*
G54D11*
G01X-12576Y-12705D02*
Y6705D01*
X2976D01*
Y-12705D01*
X-12576D01*
G01X-550Y-19475D02*
Y-16325D01*
X5750D01*
Y-19475D01*
X-550D01*
G01X-15050D02*
Y-16325D01*
X-8750D01*
Y-19475D01*
X-15050D01*
G01X-6670Y2768D02*
G03I-1969J0D01*
G01X-5875Y17650D02*
X-2725D01*
Y11350D01*
X-5875D01*
Y17650D01*
G01X-12075D02*
X-8925D01*
Y11350D01*
X-12075D01*
Y17650D01*
G01X-18275D02*
X-15125D01*
Y11350D01*
X-18275D01*
Y17650D01*
G01X3375Y11450D02*
X225D01*
Y17750D01*
X3375D01*
Y11450D01*
G01X9475D02*
X6325D01*
Y17750D01*
X9475D01*
Y11450D01*
G54D12*
G01X-20300Y-10000D02*
X-30300D01*
G01X-20300Y-20000D02*
Y20000D01*
X-30300D01*
Y-20000D01*
X-20300D01*
G01X-25300Y0D02*
X-30300D01*
G01X-20300Y-15000D02*
X-16363Y-13949D01*
G01X-20300Y-15000D02*
X-16363Y-14736D01*
G01X-20300Y-15000D02*
X-16363Y-15524D01*
G01X-20300Y-15000D02*
X-16363Y-13689D01*
Y-16311D01*
X-20300Y-15000D01*
G01X30652Y9500D02*
G03X12148I-9252J0D01*
G01Y-10500D01*
G03X30652I9252J0D01*
G01Y9500D01*
M02*
