G04 ================== begin FILE IDENTIFICATION RECORD ==================*
G04 Layout Name:  E:/workDir/SYB480/board/syn480.brd*
G04 Film Name:    TOP*
G04 File Format:  Gerber RS274X*
G04 File Origin:  Cadence Allegro 16.5-P002*
G04 Origin Date:  Sun Oct 15 02:59:52 2017*
G04 *
G04 Layer:  BOARD GEOMETRY/OUTLINE*
G04 Layer:  ETCH/TOP*
G04 Layer:  PIN/TOP*
G04 Layer:  VIA CLASS/TOP*
G04 *
G04 Offset:    (0.00 0.00)*
G04 Mirror:    No*
G04 Mode:      Positive*
G04 Rotation:  0*
G04 FullContactRelief:  No*
G04 UndefLineWidth:     0.00*
G04 ================== end FILE IDENTIFICATION RECORD ====================*
%FSLAX35Y35*MOIN*%
%IR0*IPPOS*OFA0.00000B0.00000*MIA0B0*SFA1.00000B1.00000*%
%ADD16C,.03346*%
%ADD14C,.01772*%
%ADD10C,.06693*%
%ADD11R,.06693X.06693*%
%ADD13R,.0374X.03937*%
%ADD15R,.03937X.0374*%
%ADD12R,.06299X.02362*%
%ADD17C,.012*%
%ADD18C,.005*%
%ADD20C,.0435*%
%ADD19R,.07302X.03364*%
%ADD22R,.0494X.04744*%
%ADD21R,.04744X.0494*%
G75*
%LPD*%
G75*
G36*
G01X-5902Y7043D02*
X-11262Y1682D01*
X-19581D01*
Y-2682D01*
X-11279D01*
Y-2102D01*
X-10517D01*
X-3484Y4931D01*
G02X-2802Y4648I282J-283D01*
G01Y2424D01*
X-10596Y-5370D01*
G02X-11279Y-5088I-283J283D01*
G01Y-3318D01*
X-19581D01*
Y-5417D01*
X-19759Y-5595D01*
G02X-20100Y-5453I-141J142D01*
G01Y-1000D01*
X-20300Y-800D01*
X-24175D01*
X-24200Y-793D01*
G03X-26400I-1100J-4207D01*
G01X-26425Y-800D01*
X-28200D01*
X-28800Y-200D01*
Y2096D01*
G02X-28108Y2369I400J0D01*
G03X-25379Y8847I2808J2631D01*
G02X-25670Y9530I-8J400D01*
G01X-24468Y10732D01*
X-24410Y10744D01*
G03X-21257Y13400I-890J4256D01*
G01X-19170D01*
Y8978D01*
X-14230D01*
Y13400D01*
X-12970D01*
Y8978D01*
X-8030D01*
Y13400D01*
X-7270D01*
Y8478D01*
X-5902D01*
Y7043D01*
G37*
G36*
G01X2322Y-20900D02*
Y-14930D01*
X1052D01*
Y-14168D01*
X1002Y-14118D01*
Y-2102D01*
X1679D01*
Y-2682D01*
X9981D01*
Y1682D01*
X1679D01*
Y1102D01*
X402D01*
Y5437D01*
X663Y5698D01*
X1679D01*
Y2318D01*
X9981D01*
Y2898D01*
X13200D01*
Y2600D01*
X24100Y-8300D01*
Y-13600D01*
X16800Y-20900D01*
X2322D01*
G37*
G36*
G01X-11900D02*
Y-14000D01*
X-12000Y-13900D01*
X-16686D01*
X-17188Y-13398D01*
X-19198D01*
Y-12682D01*
X-11279D01*
Y-10583D01*
X-2884Y-2188D01*
G02X-2202Y-2471I282J-283D01*
G01Y-14930D01*
X-3422D01*
Y-20900D01*
X-11900D01*
G37*
G36*
G01X9030Y7365D02*
X9502Y7837D01*
Y8578D01*
X10870D01*
Y14322D01*
X-1170D01*
Y14222D01*
X-5396D01*
G02X-5537Y14563I0J200D01*
G01X-5322Y14778D01*
X-1330D01*
Y18770D01*
X-1011Y19089D01*
G02X-670Y18947I141J-142D01*
G01Y15378D01*
X4270D01*
Y20122D01*
X987D01*
G02X704Y20804I0J400D01*
G01X1100Y21200D01*
X13200D01*
Y6102D01*
X9981D01*
Y6683D01*
X9313D01*
G02X9030Y7365I0J400D01*
G37*
%LPC*%
G75*
G36*
G01X9981Y-8318D02*
Y-8612D01*
G02Y-12388I19J-1888D01*
G01Y-12682D01*
X1679D01*
Y-8318D01*
X9981D01*
G37*
G54D20*
X21400Y-10500D03*
G54D19*
X-15430Y4500D03*
X5830Y-5500D03*
G54D22*
X7900Y17750D03*
G54D21*
X5750Y-17900D03*
X-8750D03*
%LPD*%
G75*
G54D10*
X-25300Y-5000D03*
Y15000D03*
Y5000D03*
G54D11*
Y-15000D03*
G54D12*
X-15430Y-10500D03*
Y-5500D03*
Y-500D03*
Y4500D03*
X5830Y-10500D03*
Y4500D03*
Y-500D03*
Y-5500D03*
G54D13*
X-550Y-17900D03*
X-8750D03*
X-15050D03*
X5750D03*
G54D14*
X-6900D03*
X2200Y18000D03*
X-10450Y11350D03*
X6600Y-17900D03*
X10000Y-10500D03*
X11550Y17750D03*
G54D15*
X-4300Y11350D03*
Y17650D03*
X-10500Y11350D03*
Y17650D03*
X-16700Y11350D03*
Y17650D03*
X1800Y17750D03*
Y11450D03*
X7900Y17750D03*
Y11450D03*
G54D16*
X21400Y-10500D03*
Y9500D03*
G54D17*
G01X7900Y11450D02*
Y8500D01*
X6700Y7300D01*
X0D01*
X-1200Y6100D01*
Y1761D01*
X-13461Y-10500D01*
X-15430D01*
G01X-550Y-17900D02*
Y-14831D01*
X-600Y-14781D01*
Y-1400D01*
X300Y-500D01*
X5830D01*
G01X-8750Y-17900D02*
X-6900D01*
G01X-20800Y-15000D02*
X-17851D01*
X-15050Y-17801D01*
Y-17900D01*
G01X-15430Y-5500D02*
X-17399D01*
X-20800Y-8901D01*
Y-15000D01*
G01D02*
X-25300D01*
G01X-4300Y11350D02*
X1700D01*
X1800Y11450D01*
G01X-4300Y11350D02*
Y6380D01*
X-11180Y-500D01*
X-15430D01*
G01X-16700Y17650D02*
X-22650D01*
X-25300Y15000D01*
G01X-10500Y17650D02*
X-4300D01*
G01X-16700D02*
X-10500D01*
G01X-25300Y5000D02*
X-23100Y7200D01*
Y9600D01*
G01X1800Y17750D02*
X7900D01*
G01X-16700Y11350D02*
X-10500D01*
G01X-16700D02*
Y5900D01*
X-15430Y4630D01*
Y4500D01*
G01X-10500Y11350D02*
X-10450D01*
G01X-23100Y9600D02*
X-21350Y11350D01*
G01D02*
X-16700D01*
G01X5750Y-17900D02*
X6600D01*
G01X21400Y-10500D02*
X14000Y-17900D01*
G01X21400Y-10500D02*
X16400Y-5500D01*
G01X14000Y-17900D02*
X6600D01*
G01X5830Y-10500D02*
X10000D01*
G01X5830Y4500D02*
X16400D01*
X21400Y9500D01*
G01X7900Y17750D02*
X11550D01*
G01X16400Y-5500D02*
X5830D01*
G54D18*
G01X-8750Y-20571D02*
Y-17900D01*
G01D02*
Y-15229D01*
G01X-11322Y-17900D02*
X-8750D01*
G01X1978Y-5500D02*
X5830D01*
G01X1800Y15178D02*
Y17750D01*
G01D02*
Y20322D01*
G01X-871Y17750D02*
X1800D01*
G01X-15430Y2617D02*
Y4500D01*
G01X-19282D02*
X-15430D01*
G01D02*
X-11578D01*
G01X-25300Y951D02*
Y5000D01*
G01D02*
Y9049D01*
G01Y5000D02*
X-21251D01*
G01X5830Y-7383D02*
Y-5500D01*
G01X5750Y-20571D02*
Y-17900D01*
G01D02*
Y-15229D01*
G01X3178Y-17900D02*
X5750D01*
G01X21400Y-12875D02*
Y-10500D01*
G01D02*
Y-8125D01*
G01X19025Y-10500D02*
X21400D01*
G01D02*
X23775D01*
G01X7900Y15178D02*
Y17750D01*
G01D02*
Y20322D01*
G01X5830Y-5500D02*
Y-3617D01*
M02*
